<?xml version="1.0" encoding="UTF-8"?>
<svg id="Layer_1" data-name="Layer 1" xmlns="http://www.w3.org/2000/svg" viewBox="0 0 442.74 500">
  <defs>
    <style>
      .cls-1 {
        fill: #fbfaff;
        stroke-width: 0px;
      }
    </style>
  </defs>
  <g id="Logo">
    <path class="cls-1" d="M27.45,276.63c11.09-20.85,24.7-42.37,40.83-64.55,16.12-22.19,35.07-45.5,56.85-69.95,22.59-25.27,44.88-47.09,66.86-65.48,21.98-18.38,41.91-32.82,59.78-43.29,17.87-10.48,34.46-18.28,49.76-23.42,3.49-1.17,6.83-2.2,10.04-3.1C215.11-20.97,98.72,37.8,37.71,151.15,4.93,212.06-5.89,277.64,2.96,335.4c5.81-19.4,13.97-39,24.49-58.77Z"/>
    <path class="cls-1" d="M387.75,53.22c.35,3.42.53,6.96.53,10.64,0,23.22-7.91,49.05-23.73,77.5-15.82,28.45-35.54,55.93-59.16,82.42-23.62,26.5-46.17,48.12-67.63,64.86-21.47,16.75-36.93,25.11-46.37,25.11-6.37,0-12.28-2.51-17.72-7.55-5.45-5.03-8.17-10.73-8.17-17.1,0-11.71,6.21-25.88,18.64-42.52,12.43-16.64,25.98-31.89,40.67-45.76,14.68-13.87,23.47-20.8,26.35-20.8,1.44,0,2.16.62,2.16,1.85,0,1.85-1.08,5.04-3.23,9.55-2.16,4.52-3.24,7.29-3.24,8.32,0,1.65.62,2.47,1.85,2.47,3.49,0,13.56-9.35,30.2-28.04,16.64-18.69,31.89-39.29,45.76-61.78,13.87-22.49,20.8-40.93,20.8-55.31,0-5.96-1.29-10.52-3.85-13.71-2.57-3.18-6.42-4.78-11.55-4.78-14.38,0-36.21,11.66-65.48,34.97-29.27,23.32-59.27,53-89.97,89.05-30.71,36.05-56.34,73.29-76.88,111.7-20.54,38.42-30.81,72.21-30.81,101.37,0,16.85,2.51,30.92,7.55,42.21,5.03,11.3,12.43,20.03,22.19,26.19,9.75,6.16,21.52,9.24,35.28,9.24,29.78,0,63.58-11.61,101.38-34.82,34.36-21.1,71.87-51.29,112.52-90.57,4.59-4.44,12.27-1.18,12.27,5.21h0c0,1.79-.67,3.53-1.87,4.86-33.79,37.48-64.86,68.48-93.19,92.99-28.86,24.96-57.06,44.16-84.58,57.62-7.7,3.76-15.33,6.98-22.89,9.69,91.02,12.53,193.54-45.52,249.48-149.46,57.34-106.53,47.49-227.35-17.28-295.63Z"/>
  </g>
</svg>